<svg xmlns="http://www.w3.org/2000/svg" viewBox="0 0 24 24" fill="#d1b97b">
  <path d="M12 2.2c3.2 0 3.6 0 4.8.1 1.2.1 1.9.3 2.3.6.5.3.9.7 1.2 1.2.3.4.5 1.1.6 2.3.1 1.2.1 1.6.1 4.8s0 3.6-.1 4.8c-.1 1.2-.3 1.9-.6 2.3-.3.5-.7.9-1.2 1.2-.4.3-1.1.5-2.3.6-1.2.1-1.6.1-4.8.1s-3.6 0-4.8-.1c-1.2-.1-1.9-.3-2.3-.6-.5-.3-.9-.7-1.2-1.2-.3-.4-.5-1.1-.6-2.3C2.2 15.6 2.2 15.2 2.2 12s0-3.6.1-4.8c.1-1.2.3-1.9.6-2.3.3-.5.7-.9 1.2-1.2.4-.3 1.1-.5 2.3-.6C8.4 2.2 8.8 2.2 12 2.2m0-2.2C8.7 0 8.3 0 7.1.1 5.8.1 4.8.4 4 1 3.2 1.6 2.6 2.2 2 3c-.6.8-.9 1.8-1 3.1C.9 7.3.9 7.7.9 12s0 4.7.1 5.9c.1 1.3.4 2.3 1 3.1.6.8 1.2 1.4 2 2 .8.6 1.8.9 3.1 1 1.2.1 1.6.1 4.9.1s3.7 0 4.9-.1c1.3-.1 2.3-.4 3.1-1 .8-.6 1.4-1.2 2-2 .6-.8.9-1.8 1-3.1.1-1.2.1-1.6.1-4.9s0-3.7-.1-4.9c-.1-1.3-.4-2.3-1-3.1-.6-.8-1.2-1.4-2-2-.8-.6-1.8-.9-3.1-1C15.7 0 15.3 0 12 0z"></path>
  <path d="M12 5.8a6.2 6.2 0 1 0 0 12.4A6.2 6.2 0 0 0 12 5.8zm0 10.2a4 4 0 1 1 0-8 4 4 0 0 1 0 8zM18.4 4.6a1.4 1.4 0 1 0 0 2.8 1.4 1.4 0 0 0 0-2.8z"></path>
</svg>
